<svg version="1.1" xmlns="http://www.w3.org/2000/svg" x="0px" y="0px" viewBox="0 0 459.17 575.45">
<style type="text/css">
	.st0{fill:#364D8C;}
	.st1{fill-rule:evenodd;clip-rule:evenodd;fill:#E5C281;}
</style>
<defs>
</defs>
<path class="st0" d="M8.72,552.19v15.77c0,0.04,0.04,0.08,0.08,0.08h13.86c3.91,0,6.93-0.79,9.07-2.39
	c2.14-1.59,3.21-3.82,3.21-6.71c0-2.89-1.08-5.13-3.25-6.75c-2.17-1.61-5.18-2.42-9.03-2.42H11.49H9.54c-0.46,0-0.82,0.37-0.82,0.82
	V552.19z M23.45,575.45H0.08c-0.04,0-0.08-0.03-0.08-0.08v-51.19c0-0.04,0.04-0.08,0.08-0.08h38.98c0.04,0,0.08,0.04,0.08,0.08v7.25
	c0,0.04-0.04,0.08-0.08,0.08H9.81c-0.6,0-1.09,0.49-1.09,1.09v9.68c0,0.05,0.03,0.08,0.08,0.08h14.66c6.28,0,11.25,1.54,14.89,4.62
	c3.65,3.03,5.47,7.02,5.47,11.96c0,4.99-1.82,8.98-5.47,11.96C34.75,573.93,29.79,575.45,23.45,575.45z"/>
<path class="st0" d="M63.54,575.45h-8.72V524.1h8.72v21.76L85.5,524.1h11.17l-23.59,23.05c-0.7,0.64-0.71,1.75-0.01,2.41
	l26.17,25.89H87.35l-23.81-23.87V575.45z"/>
<path class="st0" d="M136.37,575.45h-6.93V524.1h8.71v37.7l30.17-37.3c0.21-0.26,0.52-0.41,0.85-0.41h7.08v51.35h-8.71V537.6
	l-30.33,37.44C137.02,575.3,136.7,575.45,136.37,575.45"/>
<path class="st0" d="M198.85,575.45h-8.71V524.1h8.71v19.15c0,0.61,0.49,1.1,1.09,1.1h26.73c0.61,0,1.09-0.49,1.09-1.1V524.1h8.72
	v51.35h-8.72v-22.6c0-0.61-0.49-1.1-1.09-1.1h-26.73c-0.6,0-1.09,0.49-1.09,1.1V575.45z"/>
<path class="st0" d="M258.98,553v15.04h16.95c3.38,0,6.03-0.72,7.96-2.17c1.93-1.44,2.89-3.46,2.89-6.05c0-2.54-0.95-4.5-2.85-5.87
	c-1.9-1.37-4.57-2.06-8-2.06h-15.86C259.47,551.9,258.98,552.39,258.98,553 M258.98,532.33v12.46h14.97c2.9,0,5.16-0.57,6.77-1.72
	c1.61-1.15,2.42-2.8,2.42-4.95c0-2.15-0.8-3.79-2.42-4.92c-1.61-1.12-3.87-1.69-6.77-1.69H259.8
	C259.34,531.51,258.98,531.88,258.98,532.33z M277.51,575.45h-27.25V524.1h25.19c5.02,0,8.99,1.13,11.92,3.38
	c2.93,2.25,4.4,5.33,4.4,9.24c0,2.54-0.69,4.74-2.06,6.6c-1.37,1.86-3.14,3.18-5.31,3.96c3.49,0.59,6.32,2.1,8.51,4.55
	c2.19,2.45,3.29,5.5,3.29,9.17c0,4.35-1.69,7.85-5.07,10.49C287.81,574.13,283.27,575.45,277.51,575.45z"/>
<path class="st0" d="M347.62,575.45h-40.48V524.1h39.45v7.41h-29.91c-0.45,0-0.82,0.37-0.82,0.82v12.02h25.04v7.41h-24.21
	c-0.45,0-0.82,0.37-0.82,0.82v15.47h31.77V575.45z"/>
<path class="st0" d="M366.64,575.45h-8.71V524.1h8.71v19.15c0,0.61,0.49,1.1,1.09,1.1h26.73c0.6,0,1.09-0.49,1.09-1.1V524.1h8.72
	v51.35h-8.72v-22.6c0-0.61-0.49-1.1-1.09-1.1h-26.73c-0.6,0-1.09,0.49-1.09,1.1V575.45z"/>
<path class="st0" d="M413.77,531.51v-7.41h45.4v7.41h-17.28c-0.61,0-1.1,0.49-1.1,1.09v42.84h-8.71V532.6c0-0.61-0.49-1.09-1.1-1.09
	H413.77z"/>
<g>
	<path class="st1" d="M121.6,328.56l20.44,0.14l0-102.21l60.77-37.67l32.6-20.21v130.53h-32.6v-95.31l-20.43,12.63v103.11h73.46
		V131.88l-53.03,32.88V97.38l112.88-64.23l-0.98,330.78c0,0,20.43-0.08,20.43-0.08V0L182.38,85.38v92.05l-0.04,0.02l-1.49,0.92
		l-59.25,36.72L121.6,328.56z"/>
	<path class="st0" d="M43.68,373.54c7.38-3.99,37.54-12.2,58.94-12.32c48.13-0.7,87.94,20.14,104.87,25.84
		c21.13,8.05,48.86,15.66,65.13,18.58c46.54,8.29,97.73-22.29,97.73-22.34c-0.21-0.31-13.9,4.94-49.38,7.41
		c-35.43,2.47-69.46-12.16-108.92-25.34c-39.38-13.23-61.04-29.62-145.38-13c-9.25,1.97-18.17,4.9-30.81,9.7
		C11.23,325.53,0,286.39,0,239.15c0-63.17,25.75-120.5,67.28-162.04c41.54-41.54,98.87-67.28,162.04-67.28
		c19.24,0,37.94,2.39,55.81,6.88c4.72,1.24,8.92,2.44,13.34,3.79c-13.98,7.81-27.96,15.63-41.94,23.44
		c-5.28-1.69-11.25-2.31-17.78-2.58c-3.13-0.15-6.27-0.22-9.43-0.22c-54.53,0-104.03,22.24-139.9,58.11
		c-35.87,35.87-58.11,85.37-58.11,139.9c0,35.93,10.48,70.5,27.33,99.6c24.53-7.55,46.77-9.79,62.96-10.19l20.44,0.14
		c79,3.43,107.68,32.99,172.67,35.23c0.01,0,20.43-0.08,20.43-0.08c3.47-0.08,6.87-0.22,9.71-0.42c68.96-3.89,83.14-9.93,83.14-9.93
		c-10.11,17.47-22.45,33.51-36.64,47.69c-41.53,41.53-98.87,67.28-162.03,67.28s-120.5-25.75-162.04-67.28
		C58.72,392.61,50.82,383.37,43.68,373.54"/>
	<path class="st0" d="M345.87,41.76c16.63,9.86,31.9,21.76,45.5,35.35c41.53,41.54,67.28,98.87,67.28,162.04
		c0,26.21-4.43,51.41-12.59,74.9c-5.33,14.2-10.94,27.01-10.94,27.01s-4.69,2.1-13.64,4.46c-8.95,2.36-28.87,3.8-28.87,3.8
		s7.05-9.08,9.64-13.09c2.64-4.08,5.51-9.38,8.26-15.17c12.22-25.69,16.82-51.65,16.82-81.9c0-54.53-22.24-104.03-58.11-139.91
		c-7.25-7.25-15.06-13.95-23.36-20.02c-3.52-2.28-7.11-4.72-10.71-6.55V35.52L345.87,41.76z"/>
</g>
</svg>
